<?xml version="1.0" encoding="UTF-8" standalone="no"?>
<svg
   xmlns:dc="http://purl.org/dc/elements/1.1/"
   xmlns:cc="http://creativecommons.org/ns#"
   xmlns:rdf="http://www.w3.org/1999/02/22-rdf-syntax-ns#"
   xmlns:svg="http://www.w3.org/2000/svg"
   xmlns="http://www.w3.org/2000/svg"
   xmlns:xlink="http://www.w3.org/1999/xlink"
   id="svg3047"
   version="1.1"
   viewBox="0 0 14.288949 16.933332"
   height="63.999996"
   width="54.005474">
  <defs
     id="defs3041">
    <linearGradient
       gradientUnits="userSpaceOnUse"
       y2="-449.08618"
       x2="1152.9747"
       y1="-350.68671"
       x1="1152.9747"
       id="linearGradient13930-07"
       xlink:href="#linearGradient13973"
       gradientTransform="matrix(0.54443059,0,0,0.91901866,1186.5172,-625.48362)" />
    <linearGradient
       id="linearGradient13973">
      <stop
         style="stop-color:#1f2c3f;stop-opacity:1"
         offset="0"
         id="stop13969" />
      <stop
         style="stop-color:#5b99d8;stop-opacity:1"
         offset="1"
         id="stop13971" />
    </linearGradient>
    <linearGradient
       gradientTransform="matrix(0.44833683,0,0,0.67689492,1311.4811,-332.63309)"
       gradientUnits="userSpaceOnUse"
       y2="-898.65918"
       x2="1157.204"
       y1="-1044.5504"
       x1="1067.6246"
       id="linearGradient12693-2"
       xlink:href="#linearGradient12691" />
    <linearGradient
       id="linearGradient12691">
      <stop
         id="stop12687"
         offset="0"
         style="stop-color:#2b1009;stop-opacity:1;" />
      <stop
         id="stop12689"
         offset="1"
         style="stop-color:#402e29;stop-opacity:1" />
    </linearGradient>
    <radialGradient
       gradientUnits="userSpaceOnUse"
       gradientTransform="matrix(0.44833683,0,0,0.3639073,1311.4811,-651.63109)"
       r="28.091673"
       fy="-1019.2033"
       fx="1110.0341"
       cy="-1019.2033"
       cx="1110.0341"
       id="radialGradient12711-4"
       xlink:href="#linearGradient12709" />
    <linearGradient
       id="linearGradient12709">
      <stop
         id="stop12705"
         offset="0"
         style="stop-color:#613628;stop-opacity:1" />
      <stop
         id="stop12707"
         offset="1"
         style="stop-color:#33180f;stop-opacity:1" />
    </linearGradient>
    <radialGradient
       gradientUnits="userSpaceOnUse"
       gradientTransform="matrix(0.44833683,0,0,0.67817675,1311.4811,-331.3925)"
       r="28.509644"
       fy="-967.79871"
       fx="1109.549"
       cy="-967.79871"
       cx="1109.549"
       id="radialGradient12719-7"
       xlink:href="#linearGradient12709" />
    <radialGradient
       gradientUnits="userSpaceOnUse"
       gradientTransform="matrix(0.44833683,0,0,0.15321801,1311.4811,-813.5062)"
       r="29.17024"
       fy="-926.48401"
       fx="1110.2133"
       cy="-926.48401"
       cx="1110.2133"
       id="radialGradient12727-5"
       xlink:href="#linearGradient12709" />
  </defs>
  <metadata
     id="metadata3044">
    <rdf:RDF>
      <cc:Work
         rdf:about="">
        <dc:format>image/svg+xml</dc:format>
        <dc:type
           rdf:resource="http://purl.org/dc/dcmitype/StillImage" />
        <dc:title></dc:title>
      </cc:Work>
    </rdf:RDF>
  </metadata>
  <g
     transform="translate(-30.582692,-110.5431)"
     id="layer1">
    <g
       transform="matrix(0.12851602,0,0,0.12851602,-190.54385,246.46426)"
       id="g3822"
       style="display:inline">
      <rect
         style="opacity:1;fill:#ffffff;fill-opacity:1;fill-rule:evenodd;stroke:#b8b8b8;stroke-width:2.07996583;stroke-miterlimit:4;stroke-dasharray:none;stroke-opacity:1"
         id="rect3241-5"
         width="75.053902"
         height="90.89624"
         x="1754.6384"
         y="-1037.1884" />
      <rect
         style="display:inline;opacity:1;fill:url(#linearGradient13930-07);fill-opacity:1;fill-rule:evenodd;stroke:none;stroke-width:0.74861044;stroke-miterlimit:4;stroke-dasharray:none;stroke-opacity:1"
         id="rect13922-6"
         width="58.494385"
         height="90.89624"
         x="1754.6384"
         y="-1037.1884" />
      <rect
         style="opacity:1;fill:none;fill-opacity:0.98795184;fill-rule:evenodd;stroke:#080000;stroke-width:2.17331862;stroke-miterlimit:4;stroke-dasharray:none;stroke-opacity:1"
         id="rect3241"
         width="78.1157"
         height="94.975952"
         x="1752.5964"
         y="-1039.2281" />
      <rect
         style="opacity:1;fill:#fa3100;fill-opacity:0.98795184;fill-rule:evenodd;stroke:#050505;stroke-width:1.50100005;stroke-miterlimit:4;stroke-dasharray:none;stroke-opacity:1"
         id="rect3276"
         width="36.756237"
         height="14.043404"
         x="1721.3651"
         y="-996.24908" />
      <path
         style="opacity:1;fill:#fa3100;fill-opacity:0.98795184;fill-rule:evenodd;stroke:#000000;stroke-width:3.14802837;stroke-miterlimit:4;stroke-dasharray:none;stroke-opacity:1"
         id="path3278"
         d="m -12.321056,-1346.55 -71.432379,41.2415 0,-82.4831 z"
         transform="matrix(0.41018459,0,0,0.55424882,1791.5671,-243.7597)" />
      <path
         style="display:inline;opacity:1;fill:none;fill-opacity:0.98795184;fill-rule:evenodd;stroke:#080000;stroke-width:1.0273087;stroke-miterlimit:4;stroke-dasharray:none;stroke-opacity:1"
         d="m 1794.3266,-1042.3101 25.8627,12.4176 v 64.49743 l -25.8627,8.5749 z"
         id="rect3241-4-96" />
      <path
         style="display:inline;opacity:1;fill:#653324;fill-opacity:1;fill-rule:evenodd;stroke:url(#linearGradient12693-2);stroke-width:4.66417933;stroke-linejoin:round;stroke-miterlimit:4;stroke-dasharray:none;stroke-opacity:1"
         d="m 1790.1365,-1055.2884 38.2637,15.6046 v 95.88733 l -38.2637,15.6046 z"
         id="rect3241-2-7-4" />
      <path
         style="display:inline;opacity:1;fill:url(#radialGradient12711-4);fill-opacity:1;fill-rule:evenodd;stroke:#271616;stroke-width:0.83852834;stroke-miterlimit:4;stroke-dasharray:none;stroke-opacity:1"
         d="m 1798.2738,-1041.598 21.7529,9.3637 c 0.7321,0.3151 1.3769,0.9272 1.3769,2.0788 v 15.2577 c 0,1.1516 -0.6229,2.2482 -1.3769,2.0787 l -21.7529,-4.8884 c -0.7549,-0.1696 -1.3769,-1.1408 -1.3769,-2.5578 v -18.7747 c 0,-1.4171 0.6419,-2.8742 1.3769,-2.558 z"
         id="rect7182-4-3-6-7" />
      <path
         style="display:inline;opacity:1;fill:none;fill-opacity:1;fill-rule:evenodd;stroke:#bd9284;stroke-width:0.87453371;stroke-miterlimit:4;stroke-dasharray:none;stroke-opacity:1"
         d="m 1797.0626,-1042.716 24.3039,9.5732 c 0.5042,0.1985 0.9421,0.6343 0.9421,1.4224 v 18.5163 c 0,0.7879 -0.4245,1.5212 -0.9421,1.4222 l -24.3039,-4.6492 c -0.518,-0.099 -0.9421,-0.7808 -0.9421,-1.7503 v -22.7842 c 0,-0.9698 0.4363,-1.9496 0.9421,-1.7504 z"
         id="rect7182-20" />
      <path
         style="display:inline;opacity:1;fill:url(#radialGradient12719-7);fill-opacity:1;fill-rule:evenodd;stroke:#271616;stroke-width:0.84260476;stroke-miterlimit:4;stroke-dasharray:none;stroke-opacity:1"
         d="m 1797.9128,-1009.9911 22.0401,3.443 c 0.7816,0.1222 1.4189,0.9555 1.4189,2.1425 v 37.74023 c 0,1.1869 -0.6471,1.9237 -1.4189,2.1424 l -22.0401,6.2441 c -0.7733,0.2191 -1.419,-1.1759 -1.419,-2.6362 v -46.43963 c 0,-1.4606 0.6368,-2.7585 1.419,-2.6364 z"
         id="rect7182-4-3-0" />
      <path
         style="display:inline;opacity:1;fill:none;fill-opacity:1;fill-rule:evenodd;stroke:#ab7463;stroke-width:0.90571958;stroke-miterlimit:4;stroke-dasharray:none;stroke-opacity:1"
         d="m 1797.6457,-1011.0632 23.1377,3.6438 c 0.8401,0.1323 1.5252,1.0271 1.5252,2.3029 v 39.32893 c 0,1.2758 -0.6952,2.0703 -1.5252,2.3029 l -23.1377,6.4834 c -0.8315,0.233 -1.5252,-1.2639 -1.5252,-2.8338 v -48.39443 c 0,-1.5699 0.6847,-2.9661 1.5252,-2.8337 z"
         id="rect7182-4-54" />
      <path
         style="display:inline;opacity:1;fill:url(#radialGradient12727-5);fill-opacity:1;fill-rule:evenodd;stroke:#271616;stroke-width:0.83852834;stroke-miterlimit:4;stroke-dasharray:none;stroke-opacity:1"
         d="m 1797.8705,-951.99287 22.7201,-7.4216 c 0.7447,-0.2433 1.3769,0.9271 1.3769,2.0787 v 3.751 c 0,1.1516 -0.6418,1.7796 -1.3769,2.0787 l -22.7201,9.2446 c -0.7377,0.3001 -1.3767,-1.1408 -1.3767,-2.5578 v -4.6158 c 0,-1.417 0.6304,-2.3141 1.3767,-2.5578 z"
         id="rect7182-4-3-6-3-7" />
      <path
         style="display:inline;opacity:1;fill:none;fill-opacity:1;fill-rule:evenodd;stroke:#ab7463;stroke-width:0.90571958;stroke-miterlimit:4;stroke-dasharray:none;stroke-opacity:1"
         d="m 1797.1074,-952.59317 24.491,-7.3091 c 0.5358,-0.1599 0.987,0.6646 0.987,1.4901 v 5.9604 c 0,0.8255 -0.4579,1.2877 -0.987,1.4901 l -24.491,9.37 c -0.5308,0.2029 -0.9869,-0.8179 -0.9869,-1.8335 v -7.3343 c 0,-1.0159 0.45,-1.6735 0.9869,-1.8337 z"
         id="rect7182-2-5" />
      <path
         style="display:inline;fill:none;stroke:#d8921a;stroke-width:2.87904787;stroke-linecap:butt;stroke-linejoin:miter;stroke-miterlimit:4;stroke-dasharray:none;stroke-opacity:1"
         d="m 1799.1714,-985.83907 c 0.1753,-3.2294 1.894,-5.622 3.4505,-2.1231 l 4.3403,-0.5327"
         id="path3274-2-7" />
    </g>
  </g>
</svg>
